<?xml version="1.0" encoding="UTF-8"?>
<svg width="298px" height="65px" viewBox="0 0 298 65" version="1.1" xmlns="http://www.w3.org/2000/svg" xmlns:xlink="http://www.w3.org/1999/xlink">
    <!-- Generator: Sketch 50.2 (55047) - http://www.bohemiancoding.com/sketch -->
    <title>Blackscript</title>
    <desc>Created with Sketch.</desc>
    <defs></defs>
    <g id="Page-1" stroke="none" stroke-width="1" fill="none" fill-rule="evenodd">
        <path d="M40.952,44.152 L20.792,52.536 L7.288,48.504 L7.736,14.712 L0.056,9.784 L10.808,3.768 L18.552,8.376 L27.192,3.32 L38.776,7.096 L38.456,20.152 L30.776,26.104 L41.272,29.176 L40.952,44.152 Z M18.104,42.872 L28.984,45.944 L29.24,34.296 L18.36,31.352 L18.104,42.872 Z M23.864,23.48 L27.704,24.824 L27.832,14.456 L19,12.152 L18.68,26.232 L23.864,23.48 Z M56.184,12.728 L56.184,42.872 L62.264,46.904 L52.28,52.216 L46.392,47.8 L46.584,12.664 L44.856,1.72 L46.2,1.144 L49.784,7.096 L56.568,3.256 L56.184,12.728 Z M67.448,36.984 L62.136,23.416 L77.176,16.056 L87.288,20.92 L86.648,41.848 L93.176,47.352 L82.168,52.344 L77.432,46.648 L69.56,52.088 L62.008,46.968 L62.008,38.968 L67.448,36.984 Z M69.816,23.288 L70.072,36.216 L77.496,33.72 L77.688,25.592 L69.816,23.288 Z M77.368,44.088 L77.496,38.008 L70.52,40.504 L77.368,44.088 Z M117.624,21.048 L110.968,26.616 L103.544,22.84 L103.544,41.848 L114.808,47.096 L103.224,52.536 L93.56,47.544 L93.624,24.632 L108.344,16.12 L117.624,21.048 Z M128.632,3.448 L128.184,21.752 L136.312,17.208 L146.04,23.864 L146.04,27.896 L137.336,31.8 L150.072,46.776 L140.152,52.088 L128.248,34.296 L128.12,43.192 L133.624,46.456 L123.512,52.088 L118.392,47.992 L118.648,12.216 L117.112,1.144 L118.52,0.568 L121.784,7.864 L128.632,3.448 Z M128.312,24.696 L128.248,32.504 L136.376,28.216 L128.312,24.696 Z M162.68,39.288 L150.84,35.384 L150.904,24.12 L163.704,15.864 L173.752,20.664 L168.184,25.72 L160.056,22.008 L159.992,28.984 L171.704,32.888 L171.576,44.664 L158.328,52.088 L148.344,47.096 L154.936,41.72 L162.552,45.752 L162.68,39.288 Z M200.184,21.048 L193.528,26.616 L186.104,22.84 L186.104,41.848 L197.368,47.096 L185.784,52.536 L176.12,47.544 L176.184,24.632 L190.904,16.12 L200.184,21.048 Z M219.832,28.6 L212.28,24.696 L212.024,43 L218.296,47.288 L207.416,52.088 L202.232,47.8 L202.36,25.464 L196.472,22.008 L206.456,16.632 L212.344,21.56 L218.36,16.504 L226.552,21.112 L219.832,28.6 Z M228.28,25.336 L222.328,22.008 L232.312,16.632 L238.072,21.304 L237.56,43.192 L243.448,46.456 L233.08,52.088 L227.768,47.992 L228.28,25.336 Z M241.464,3.704 L231.992,13.496 L229.24,11.256 L238.392,1.336 L241.464,3.704 Z M244.408,60.472 L245.048,26.104 L239.16,21.368 L249.144,16.632 L254.968,21.048 L264.056,16.632 L271.672,22.072 L271.288,44.92 L256.504,51.64 L254.136,50.616 L253.944,56.248 L259.896,59.704 L249.016,64.376 L244.408,60.472 Z M254.584,43.448 L261.624,46.008 L261.88,26.872 L254.904,24.184 L254.584,43.448 Z M277.624,25.656 L271.16,25.656 L277.624,19.128 L277.88,12.472 L287.096,8.952 L286.968,19.192 L297.144,19.064 L293.176,25.272 L287.224,25.272 L286.968,42.552 L294.84,46.072 L285.048,52.536 L277.176,47.8 L277.624,25.656 Z" id="Blackscript" fill="#FFFFFF"></path>
    </g>
</svg>